<?xml version="1.0" encoding="UTF-8" standalone="no" ?>
<!DOCTYPE svg PUBLIC "-//W3C//DTD SVG 1.1//EN" "http://www.w3.org/Graphics/SVG/1.1/DTD/svg11.dtd">
<svg xmlns="http://www.w3.org/2000/svg" xmlns:xlink="http://www.w3.org/1999/xlink" version="1.1" width="1080" height="1080" viewBox="0 0 1080 1080" xml:space="preserve">
<desc>Created with Fabric.js 5.2.4</desc>
<defs>
</defs>
<rect x="0" y="0" width="100%" height="100%" fill="transparent"></rect>
<g transform="matrix(1 0 0 1 540 540)" id="cc7fcf56-b898-48ec-a2ca-0f7355b89251"  >
<rect style="stroke: none; stroke-width: 1; stroke-dasharray: none; stroke-linecap: butt; stroke-dashoffset: 0; stroke-linejoin: miter; stroke-miterlimit: 4; fill: rgb(255,255,255); fill-rule: nonzero; opacity: 1; visibility: hidden;" vector-effect="non-scaling-stroke"  x="-540" y="-540" rx="0" ry="0" width="1080" height="1080" />
</g>
<g transform="matrix(1 0 0 1 540 540)" id="bee2bc58-8880-4f7e-83c9-f54f78953bea"  >
</g>
<g transform="matrix(3.19 0 0 3.19 540 540)" id="61a0a41c-e121-4607-a96e-6fc46a8a291b"  >
<path style="stroke: rgb(0,0,0); stroke-width: 0; stroke-dasharray: none; stroke-linecap: butt; stroke-dashoffset: 0; stroke-linejoin: miter; stroke-miterlimit: 4; fill: rgb(53,17,150); fill-rule: nonzero; opacity: 1;" vector-effect="non-scaling-stroke"  transform=" translate(-148.5, -148.5)" d="M 287.034 60.873 L 266.215 60.872 L 266.215 39.321 C 266.215 34.387 262.60499999999996 30.195 257.72499999999997 29.464999999999996 C 256.873 29.336999999999996 236.59099999999995 26.391 212.16799999999995 30.834999999999997 C 184.94099999999995 35.788999999999994 163.22699999999995 48.006 148.49999999999994 66.475 C 133.77199999999993 48.00599999999999 112.05799999999994 35.788999999999994 84.83199999999994 30.834999999999994 C 60.40799999999994 26.391999999999996 40.125999999999934 29.336999999999993 39.274999999999935 29.464999999999993 C 34.39499999999993 30.195999999999994 30.784999999999933 34.38799999999999 30.784999999999933 39.32099999999999 L 30.784999999999933 60.871999999999986 L 9.966 60.871999999999986 C 4.463 60.872 0 65.335 0 70.839 L 0 258.644 C 0 261.871 1.562 264.898 4.193 266.76800000000003 C 6.823999999999999 268.63800000000003 10.197 269.11800000000005 13.244 268.05600000000004 C 13.991999999999999 267.797 88.675 242.30900000000003 144.364 267.711 C 146.99200000000002 268.91 150.00900000000001 268.91 152.637 267.711 C 208.17000000000002 242.38100000000003 283.01300000000003 267.79900000000004 283.757 268.05600000000004 C 284.825 268.42800000000005 285.931 268.61100000000005 287.033 268.61100000000005 C 289.076 268.61100000000005 291.098 267.98300000000006 292.808 266.76900000000006 C 295.43899999999996 264.89900000000006 297.001 261.87200000000007 297.001 258.64500000000004 L 297.001 70.84 C 297 65.336 292.538 60.873 287.034 60.873 z M 19.933 245.309 L 19.933 80.805 L 30.785 80.805 L 30.785 213.531 C 30.785 216.427 32.052 219.177 34.243 221.07 C 36.434000000000005 222.963 39.348 223.81199999999998 42.212 223.38899999999998 C 42.762 223.30899999999997 86.05799999999999 217.36499999999998 117.69 239.06799999999998 C 78.725 232.405 39.727 240.112 19.933 245.309 z M 138.534 230.08 C 124.60199999999999 217.49200000000002 106.45499999999998 208.98000000000002 84.832 205.04600000000002 C 74.42599999999999 203.15200000000002 64.77199999999999 202.60000000000002 57.05199999999999 202.60000000000002 C 54.75999999999999 202.60000000000002 52.63799999999999 202.64900000000003 50.718999999999994 202.72600000000003 L 50.718999999999994 48.473 L 50.717999999999996 48.473 C 69.87299999999999 47.609 116.47 49.657 138.534 87.06 L 138.534 230.08 z M 158.466 87.061 C 180.45100000000002 49.818000000000005 227.121 47.67700000000001 246.282 48.498000000000005 L 246.282 202.726 C 237.899 202.388 225.662 202.59 212.168 205.046 C 190.54500000000002 208.98 172.398 217.49099999999999 158.466 230.07999999999998 L 158.466 87.061 z M 179.277 239.074 C 210.91299999999998 217.358 254.23199999999997 223.30800000000002 254.772 223.388 C 257.643 223.81900000000002 260.555 222.975 262.753 221.083 C 264.95099999999996 219.189 266.215 216.433 266.215 213.531 L 266.215 80.806 L 277.06699999999995 80.806 L 277.06699999999995 245.30899999999997 C 257.267 240.11 218.253 232.4 179.277 239.074 z" stroke-linecap="round" />
</g>
<g transform="matrix(0.27 -0.04 0.04 0.27 718.4 393.52)"  >
<g style="" vector-effect="non-scaling-stroke"   >
		<g transform="matrix(40 0 0 40 80 -229.24)"  >
<path style="stroke: none; stroke-width: 1; stroke-dasharray: none; stroke-linecap: butt; stroke-dashoffset: 0; stroke-linejoin: miter; stroke-miterlimit: 4; fill: rgb(72,23,204); fill-rule: evenodd; opacity: 1;" vector-effect="non-scaling-stroke"  transform=" translate(-12.25, -4.5)" d="M 6.75 3.80989 C 6.75 3.29386 7.14265 2.86257 7.65642 2.81428 L 16.6564 1.96832 C 17.2431 1.91318 17.75 2.37468 17.75 2.96393 L 17.75 5.14519 C 17.75 5.65923 17.3603 6.08955 16.8487 6.1403 L 7.84873 7.03323 C 7.26031 7.09161 6.75 6.62943 6.75 6.03812 L 6.75 3.80989 Z" stroke-linecap="round" />
</g>
		<g transform="matrix(40 0 0 40 180 190.72)"  >
<ellipse style="stroke: none; stroke-width: 1; stroke-dasharray: none; stroke-linecap: butt; stroke-dashoffset: 0; stroke-linejoin: miter; stroke-miterlimit: 4; fill: rgb(72,23,204); fill-rule: nonzero; opacity: 1;" vector-effect="non-scaling-stroke"  cx="0" cy="0" rx="3" ry="2.5" />
</g>
		<g transform="matrix(40 0 0 40 -180 230.72)"  >
<ellipse style="stroke: none; stroke-width: 1; stroke-dasharray: none; stroke-linecap: butt; stroke-dashoffset: 0; stroke-linejoin: miter; stroke-miterlimit: 4; fill: rgb(72,23,204); fill-rule: nonzero; opacity: 1;" vector-effect="non-scaling-stroke"  cx="0" cy="0" rx="3" ry="2.5" />
</g>
		<g transform="matrix(40 0 0 40 260 -9.28)"  >
<path style="stroke: none; stroke-width: 1; stroke-dasharray: none; stroke-linecap: butt; stroke-dashoffset: 0; stroke-linejoin: miter; stroke-miterlimit: 4; fill: rgb(72,23,204); fill-rule: evenodd; opacity: 1;" vector-effect="non-scaling-stroke"  transform=" translate(-16.75, -10)" d="M 15.75 5 L 17.75 5 L 17.75 15 L 15.75 15 L 15.75 5 Z" stroke-linecap="round" />
</g>
		<g transform="matrix(40 0 0 40 -100 30.72)"  >
<path style="stroke: none; stroke-width: 1; stroke-dasharray: none; stroke-linecap: butt; stroke-dashoffset: 0; stroke-linejoin: miter; stroke-miterlimit: 4; fill: rgb(72,23,204); fill-rule: evenodd; opacity: 1;" vector-effect="non-scaling-stroke"  transform=" translate(-7.75, -11)" d="M 6.75 6 L 8.75 6 L 8.75 16 L 6.75 16 L 6.75 6 Z" stroke-linecap="round" />
</g>
</g>
</g>
<g transform="matrix(0.25 0.08 -0.08 0.25 687.3 614.19)"  >
<g style="" vector-effect="non-scaling-stroke"   >
		<g transform="matrix(40 0 0 40 90 -115.92)"  >
<path style="stroke: none; stroke-width: 1; stroke-dasharray: none; stroke-linecap: butt; stroke-dashoffset: 0; stroke-linejoin: miter; stroke-miterlimit: 4; fill: rgb(72,23,204); fill-rule: nonzero; opacity: 1;" vector-effect="non-scaling-stroke"  transform=" translate(-12.63, -6.78)" d="M 9.78103 1.69759 C 14.1038 4.63512 16.25 6.76176 16.25 8.30413 C 16.25 9.79646 15.4291 11.0034 13.8541 11.8872 C 13.418 12.132 12.9324 11.6555 13.1688 11.2148 C 13.5756 10.4565 13.4416 9.60793 12.7079 8.59803 C 11.934 7.53285 10.8174 6.75731 9.34301 6.26969 C 9.13826 6.20198 9 6.01063 9 5.79498 L 9 2.11114 C 9 1.70978 9.44906 1.47201 9.78103 1.69759 Z" stroke-linecap="round" />
</g>
		<g transform="matrix(40 0 0 40 -105 217.79)"  >
<path style="stroke: none; stroke-width: 1; stroke-dasharray: none; stroke-linecap: butt; stroke-dashoffset: 0; stroke-linejoin: miter; stroke-miterlimit: 4; fill: rgb(72,23,204); fill-rule: nonzero; opacity: 1;" vector-effect="non-scaling-stroke"  transform=" translate(-7.75, -15.13)" d="M 7.75 17.75 C 5.97914 17.75 4.5 16.607 4.5 15.125 C 4.5 13.643 5.97914 12.5 7.75 12.5 C 9.52086 12.5 11 13.643 11 15.125 C 11 16.607 9.52086 17.75 7.75 17.75 Z" stroke-linecap="round" />
</g>
		<g transform="matrix(40 0 0 40 -15 12.79)"  >
<path style="stroke: none; stroke-width: 1; stroke-dasharray: none; stroke-linecap: butt; stroke-dashoffset: 0; stroke-linejoin: miter; stroke-miterlimit: 4; fill: rgb(72,23,204); fill-rule: nonzero; opacity: 1;" vector-effect="non-scaling-stroke"  transform=" translate(-10, -10)" d="M 10 4 C 10.5523 4 11 4.44772 11 5 L 11 15 C 11 15.5523 10.5523 16 10 16 C 9.44772 16 9 15.5523 9 15 L 9 5 C 9 4.44772 9.44772 4 10 4 Z" stroke-linecap="round" />
</g>
</g>
</g>
<g transform="matrix(0.51 -0.2 0.2 0.51 352.75 483.02)"  >
<g style="" vector-effect="non-scaling-stroke"   >
		<g transform="matrix(2.9 0 0 2.9 -16.54 -90.32)"  >
<path style="stroke: none; stroke-width: 1; stroke-dasharray: none; stroke-linecap: butt; stroke-dashoffset: 0; stroke-linejoin: miter; stroke-miterlimit: 4; fill: rgb(72,23,204); fill-rule: nonzero; opacity: 1;" vector-effect="non-scaling-stroke"  transform=" translate(-132.37, -106.9)" d="M 156.716 61.478 C 152.60500000000002 67.754 147.835 72.989 142.50400000000002 77.087 L 133.776 84.049 C 120.43700000000001 95.90400000000001 110.83900000000001 105.482 105.23400000000001 112.513 C 95.025 125.301 89.42800000000001 138.292 88.584 151.124 C 87.64200000000001 165.597 91.771 179.334 100.85900000000001 191.964 C 110.495 205.422 122.659 212.718 137.02300000000002 213.654 C 140.31400000000002 213.87199999999999 143.92000000000002 213.83599999999998 146.91900000000004 213.639 L 145.79800000000003 203.53500000000003 C 143.70800000000003 203.72700000000003 141.49200000000002 203.75800000000004 139.17000000000002 203.60300000000004 C 129.733 202.98600000000005 121.30600000000001 199.09200000000004 114.10600000000002 192.03000000000003 C 106.58200000000002 184.69700000000003 103.21100000000003 176.61500000000004 103.81900000000002 167.33000000000004 C 104.96800000000002 149.74000000000004 116.38100000000001 132.32600000000005 137.74400000000003 115.53800000000004 L 147.28700000000003 107.93900000000004 C 155.68100000000004 100.76500000000003 162.47900000000004 91.74800000000003 167.50300000000004 81.11400000000003 C 172.47400000000005 70.55800000000004 175.38900000000004 59.13100000000003 176.17600000000004 47.15400000000003 C 176.64200000000005 40.11700000000003 175.66300000000004 31.379000000000033 173.30200000000005 21.189000000000032 C 170.06100000000004 7.350000000000032 165.44800000000004 0.42400000000003146 159.16600000000005 0.010000000000033538 C 156.93400000000005 -0.12799999999996647 154.49000000000007 0.9960000000000335 151.50800000000007 3.6270000000000335 C 144.25600000000006 10.175000000000033 138.98500000000007 18.108000000000033 135.82500000000007 27.169000000000036 C 133.38700000000009 34.095000000000034 131.7680000000001 43.35800000000003 131.02000000000007 54.698000000000036 C 130.70700000000008 59.418000000000035 131.33300000000006 68.13600000000004 132.82500000000007 78.66000000000004 L 141.66900000000007 70.46800000000005 C 141.64100000000008 69.28500000000004 141.67400000000006 68.05500000000005 141.76500000000007 66.76500000000004 C 142.23100000000008 59.54400000000004 144.05400000000006 51.703000000000046 147.15900000000008 43.472000000000044 C 151.11500000000007 33.176000000000045 154.84800000000007 30.063000000000045 157.2920000000001 29.268000000000043 C 157.9600000000001 29.050000000000043 158.61200000000008 28.970000000000045 159.30700000000007 29.014000000000042 C 162.49200000000008 29.22600000000004 165.66500000000008 30.573000000000043 165.12200000000007 38.99300000000004 C 164.664 46.132 161.831 53.693 156.716 61.478 z" stroke-linecap="round" />
</g>
		<g transform="matrix(2.9 0 0 2.9 21.24 164.22)"  >
<path style="stroke: none; stroke-width: 1; stroke-dasharray: none; stroke-linecap: butt; stroke-dashoffset: 0; stroke-linejoin: miter; stroke-miterlimit: 4; fill: rgb(72,23,204); fill-rule: nonzero; opacity: 1;" vector-effect="non-scaling-stroke"  transform=" translate(-145.42, -194.77)" d="M 164.55 209.161 C 170.27800000000002 206.593 175.17100000000002 202.683 179.126 197.51 C 184.181 190.94899999999998 187.023 183.194 187.59300000000002 174.463 C 188.31300000000002 163.744 185.739 154.025 179.97600000000003 145.56799999999998 C 173.65400000000002 136.30399999999997 164.99600000000004 131.25099999999998 154.23100000000002 130.54199999999997 C 152.99900000000002 130.46099999999998 151.68800000000002 130.46699999999998 150.336 130.56699999999998 L 148.032 113.37599999999998 L 138.364 120.48799999999997 L 139.847 132.68199999999996 C 134.05800000000002 135.07499999999996 129.02 138.85199999999995 124.83000000000001 143.93699999999995 C 120.007 149.86099999999996 117.32200000000002 156.37999999999997 116.86600000000001 163.31899999999996 C 116.40000000000002 170.52699999999996 118.00800000000001 177.12899999999996 121.64800000000001 182.90199999999996 C 123.543 185.98299999999995 126.15500000000002 188.72199999999995 129.14600000000002 190.95999999999995 C 134.05200000000002 194.60999999999996 139.709 194.33599999999996 140.60500000000002 192.35299999999995 C 141.51100000000002 190.36999999999995 138.15 187.25799999999995 135.51500000000001 183.10499999999996 C 134.013 180.75399999999996 133.27300000000002 177.93199999999996 133.27300000000002 174.60799999999995 C 133.27300000000002 167.55499999999995 137.52900000000002 161.49199999999996 143.59000000000003 158.80899999999994 L 149.26300000000003 203.01999999999992 L 150.58800000000002 213.27799999999993 C 151.45200000000003 218.15099999999993 152.30700000000002 223.00299999999993 153.12500000000003 227.79799999999994 C 154.12500000000003 234.28599999999994 154.47700000000003 239.90999999999994 154.16600000000003 244.51299999999995 C 153.747 250.88799999999995 151.75800000000004 256.0969999999999 148.247 260.006 C 146.013 262.491 143.40300000000002 264.061 140.45200000000003 264.931 C 144.41300000000004 260.969 146.866 255.50099999999998 146.866 249.45299999999997 C 146.866 237.378 137.074 227.58099999999996 124.99600000000001 227.58099999999996 C 121.64300000000001 227.58099999999996 118.50500000000001 228.39299999999997 115.667 229.73999999999995 C 115.307 229.89499999999995 114.968 230.12799999999996 114.613 230.31399999999996 C 113.834 230.73899999999998 113.054 231.16399999999996 112.327 231.67599999999996 C 112.078 231.86299999999997 111.84 232.07899999999995 111.595 232.28099999999995 C 106.707 236.09699999999995 103.504 241.89699999999993 103.22 248.50999999999993 C 103.22 248.51999999999992 103.209 248.53099999999992 103.209 248.54099999999994 C 103.209 248.54599999999994 103.209 248.55099999999993 103.209 248.55699999999993 C 103.196 248.86799999999994 103.119 249.14699999999993 103.119 249.45299999999992 C 103.119 249.7119999999999 103.18599999999999 249.9449999999999 103.197 250.19299999999993 C 103.186 257.27699999999993 106.13 263.3719999999999 112.036 268.3109999999999 C 117.62 272.9769999999999 124.313 275.5909999999999 131.928 276.0879999999999 C 136.255 276.3679999999999 140.433 275.8709999999999 144.335 274.6029999999999 C 147.524 273.5619999999999 150.61 271.9829999999999 153.484 269.9159999999999 C 160.44400000000002 264.8939999999999 164.234 258.3319999999999 164.756 250.38399999999987 C 165.155 244.32099999999988 164.85 237.1489999999999 163.819 228.97299999999987 L 160.981 210.54399999999987 L 153.825 157.64499999999987 C 161.809 159.17699999999988 167.85199999999998 166.18799999999987 167.85199999999998 174.61299999999986 C 167.85199999999998 180.59899999999985 165.91499999999996 190.04399999999987 162.301 194.98899999999986 L 164.55 209.161 z" stroke-linecap="round" />
</g>
</g>
</g>
<g transform="matrix(NaN NaN NaN NaN 0 0)"  >
<g style=""   >
</g>
</g>
<g transform="matrix(NaN NaN NaN NaN 0 0)"  >
<g style=""   >
</g>
</g>
<g transform="matrix(NaN NaN NaN NaN 0 0)"  >
<g style=""   >
</g>
</g>
<g transform="matrix(NaN NaN NaN NaN 0 0)"  >
<g style=""   >
</g>
</g>
<g transform="matrix(NaN NaN NaN NaN 0 0)"  >
<g style=""   >
</g>
</g>
<g transform="matrix(NaN NaN NaN NaN 0 0)"  >
<g style=""   >
</g>
</g>
</svg>